<svg width="19" height="14" viewBox="0 0 19 14" fill="none" xmlns="http://www.w3.org/2000/svg">
<path d="M15.4766 1.78296C17.4102 4.65405 18.377 7.87671 18.0254 11.5974C18.0254 11.5974 18.0254 11.6267 17.9961 11.6267C16.707 12.5935 15.2422 13.3259 13.6895 13.7947C13.6602 13.7947 13.6309 13.7947 13.6309 13.7947C13.3086 13.3259 13.0156 12.8572 12.752 12.3591V12.3298C12.752 12.3005 12.752 12.3005 12.7812 12.2712C13.25 12.0955 13.6895 11.8904 14.1289 11.6267C14.1582 11.6267 14.1582 11.6267 14.1582 11.5974C14.1582 11.5681 14.1582 11.5681 14.1289 11.5388C14.041 11.4802 13.9531 11.4216 13.8652 11.3337H13.8359H13.8066C11.0234 12.6228 7.97656 12.6228 5.16406 11.3337C5.13477 11.3337 5.13477 11.3337 5.13477 11.3337C5.10547 11.3337 5.10547 11.3337 5.10547 11.3337C5.01758 11.4216 4.92969 11.4802 4.8418 11.5388C4.8125 11.5681 4.8125 11.5681 4.8125 11.5974C4.8125 11.6267 4.8125 11.6267 4.8418 11.6267C5.25195 11.8904 5.7207 12.0955 6.18945 12.2712C6.18945 12.3005 6.21875 12.3005 6.21875 12.3298V12.3591C5.95508 12.8572 5.66211 13.3259 5.33984 13.7947C5.31055 13.7947 5.31055 13.7947 5.28125 13.7947C3.69922 13.3259 2.23438 12.5935 0.974609 11.6267C0.945312 11.6267 0.945312 11.5974 0.945312 11.5974C0.652344 8.37476 1.26758 5.1228 3.49414 1.78296C3.49414 1.78296 3.49414 1.78296 3.52344 1.78296C4.60742 1.28491 5.80859 0.904053 7.00977 0.698975C7.00977 0.698975 7.00977 0.698975 7.03906 0.698975H7.06836C7.24414 0.991943 7.39062 1.31421 7.50781 1.60718C8.15234 1.51929 8.79688 1.46069 9.4707 1.46069C10.1445 1.46069 10.8184 1.51929 11.4629 1.60718C11.5801 1.31421 11.7266 0.991943 11.9023 0.698975L11.9316 0.669678C11.9316 0.669678 11.9316 0.698975 11.9609 0.698975C13.1621 0.904053 14.3633 1.28491 15.4473 1.78296C15.4766 1.78296 15.4766 1.78296 15.4766 1.78296ZM6.62891 9.63452C7.47852 9.63452 8.18164 8.84351 8.18164 7.90601C8.18164 6.93921 7.50781 6.17749 6.62891 6.17749C5.7793 6.17749 5.07617 6.93921 5.07617 7.90601C5.07617 8.84351 5.7793 9.63452 6.62891 9.63452ZM12.3418 9.63452C13.2207 9.63452 13.8945 8.84351 13.8945 7.90601C13.9238 6.93921 13.2207 6.17749 12.3418 6.17749C11.4922 6.17749 10.8184 6.93921 10.8184 7.90601C10.8184 8.84351 11.4922 9.63452 12.3418 9.63452Z" fill="white"/>
</svg>
