<svg width="15" height="16" viewBox="0 0 15 16" fill="none" xmlns="http://www.w3.org/2000/svg">
<g clip-path="url(#clip0_1313_84)">
<path d="M12.9135 3.16903C11.4843 1.67878 9.71763 0.902806 7.65291 0.859156C3.36971 0.768615 -0.0100258 4.23522 2.23469e-05 8.35343C-0.00040983 12.5068 3.336 15.782 7.3399 15.8558C11.6396 15.935 14.9313 12.5055 14.9987 8.52338C15.0336 6.45909 14.3431 4.65983 12.9135 3.16903ZM6.4601 7.98857C5.77477 7.96296 5.16702 7.39529 5.17502 6.62472C5.18237 5.90871 5.78493 5.29373 6.52168 5.30799C7.25109 5.29967 7.86154 5.90731 7.85959 6.65163C7.85776 7.37779 7.25854 8.01828 6.4601 7.98857ZM7.60774 9.46229C7.59986 9.45364 7.58646 9.44716 7.5924 9.42879C7.63238 9.42188 7.65701 9.45451 7.68597 9.47093C7.90573 9.59594 8.14105 9.67395 8.38933 9.71857C8.61623 9.75941 8.84507 9.77464 9.07423 9.76946C9.27994 9.76492 9.48555 9.75228 9.69094 9.73045C10.1744 9.67924 10.6402 9.55715 11.0974 9.398C11.3183 9.32107 11.5345 9.23151 11.7476 9.13416C11.997 9.02017 12.2386 8.89257 12.4645 8.73645C12.5173 8.69993 12.5681 8.66049 12.6197 8.62246C12.6274 8.61684 12.6333 8.60258 12.6457 8.61479C12.6594 8.62829 12.6479 8.63824 12.6386 8.64601C12.4893 8.77081 12.3369 8.89138 12.1725 8.9964C11.9884 9.11395 11.7966 9.218 11.6026 9.31762C11.4037 9.41972 11.1975 9.50637 10.9888 9.58632C10.7019 9.6961 10.4098 9.78955 10.1106 9.86022C9.80504 9.93239 9.49809 9.9903 9.18238 9.99981C8.82778 10.0105 8.48398 9.96383 8.15466 9.83212C7.94668 9.74893 7.76052 9.62922 7.60774 9.46229ZM11.3212 7.69447C11.4863 7.69631 11.612 7.84346 11.6098 7.99148C11.6076 8.14393 11.4818 8.27812 11.3188 8.27996C11.1541 8.2818 11.0312 8.15193 11.0314 7.98079C11.0124 7.84465 11.1606 7.69263 11.3211 7.69447H11.3212ZM14.4352 8.53224C14.4285 8.80635 14.4037 9.07906 14.3649 9.35089C14.3013 9.79615 14.1948 10.2303 14.0467 10.6544C13.9723 10.8678 13.8854 11.076 13.7912 11.2816C13.6307 11.6318 13.4379 11.9632 13.2206 12.2806C13.0441 12.5385 12.8503 12.7827 12.6396 13.0139C12.4977 13.1697 12.3503 13.3202 12.1957 13.4626C11.8838 13.7499 11.5483 14.0076 11.1882 14.2327C10.8802 14.4252 10.5603 14.5941 10.2259 14.7365C9.83864 14.9013 9.44007 15.0299 9.02982 15.1229C8.94252 15.1427 8.85393 15.1569 8.76663 15.1765C8.73994 15.1826 8.73346 15.1773 8.72967 15.1509C8.69445 14.9029 8.69445 14.6552 8.7179 14.4056C8.75906 13.9674 8.87986 13.5506 9.0483 13.147C9.19729 12.7903 9.38226 12.4515 9.59025 12.1257C9.83194 11.747 10.1031 11.3901 10.3918 11.0466C10.5569 10.8502 10.7269 10.6577 10.9059 10.4735C11.0249 10.3511 11.1382 10.2231 11.2592 10.1029C11.4224 9.94071 11.5911 9.78415 11.7562 9.62392C11.8647 9.51858 11.9686 9.40848 12.0786 9.30476C12.2933 9.10239 12.4962 8.88965 12.6673 8.6485C12.8432 8.40065 12.9873 8.13756 13.0437 7.8346C13.1134 7.46023 13.0328 7.1227 12.7918 6.82579C12.6195 6.61338 12.4032 6.45509 12.1672 6.32123C11.8088 6.11799 11.4229 5.98521 11.0284 5.87327C10.716 5.78457 10.4098 5.67631 10.1066 5.56016C9.89245 5.47816 9.67928 5.39323 9.46578 5.30961C9.39209 5.0933 9.26525 4.91633 9.0779 4.78376C8.87056 4.63703 8.63643 4.57188 8.3862 4.55049C8.0947 4.52564 7.81162 4.56475 7.53362 4.65129C7.39652 4.62461 7.25995 4.595 7.1223 4.57199C6.96153 4.54509 6.79979 4.52629 6.63642 4.5197C6.55399 4.51635 6.47166 4.50976 6.38911 4.5117C6.08291 4.51872 5.78363 4.56551 5.49029 4.65702C5.10403 4.7776 4.72609 4.91784 4.36739 5.10638C4.103 5.24532 3.85569 5.40955 3.63074 5.60781C3.34194 5.86236 3.11807 6.16381 2.95784 6.51268C2.83964 6.76993 2.76563 7.0408 2.71388 7.31891C2.66623 7.57465 2.64516 7.83331 2.62031 8.09164C2.60454 8.25565 2.5987 8.42074 2.58455 8.58497C2.56607 8.7989 2.54198 9.01239 2.5234 9.22643C2.50568 9.42988 2.48093 9.63246 2.45533 9.83504C2.42875 10.0446 2.39644 10.2535 2.35755 10.4612C2.27932 10.8794 2.1742 11.2906 2.03385 11.6924C1.96297 11.8956 1.88507 12.0958 1.79345 12.2981C1.72225 12.2013 1.66077 12.1043 1.60016 12.0066C1.35522 11.6119 1.15372 11.1963 0.992193 10.7607C0.866645 10.4218 0.770378 10.075 0.697556 9.7217C0.64872 9.48498 0.617603 9.24523 0.594374 9.00429C0.566282 8.71235 0.556774 8.41988 0.566282 8.12729C0.573737 7.89651 0.595454 7.66648 0.625058 7.43711C0.657148 7.18785 0.703715 6.94162 0.762923 6.69808C0.839202 6.38422 0.939035 6.07737 1.05929 5.77733C1.14216 5.57053 1.23324 5.36741 1.33621 5.16991C1.53987 4.77911 1.77865 4.411 2.05081 4.06407C2.28105 3.77052 2.53571 3.49954 2.80874 3.24672C3.15978 2.92172 3.54225 2.63702 3.95433 2.39317C4.12126 2.29431 4.29078 2.2002 4.46571 2.11625C4.9787 1.86991 5.51222 1.68375 6.07027 1.56912C6.33196 1.51531 6.59504 1.47522 6.86116 1.44994C7.15677 1.42185 7.45302 1.41072 7.74896 1.42293C8.10864 1.43773 8.46626 1.47663 8.82054 1.54643C9.30263 1.6415 9.76949 1.78283 10.2219 1.97461C10.643 2.15309 11.0408 2.3735 11.418 2.63162C11.6774 2.80914 11.9232 3.00383 12.1561 3.21539C12.3094 3.35465 12.457 3.49987 12.5973 3.65145C12.9028 3.9812 13.1738 4.33786 13.4093 4.72131C13.5335 4.92346 13.6496 5.13004 13.7516 5.34397C13.9263 5.71034 14.0701 6.0885 14.1791 6.47994C14.2552 6.75319 14.3157 7.02967 14.3585 7.30961C14.3858 7.48832 14.4041 7.66832 14.418 7.84886C14.4357 8.07673 14.4406 8.30459 14.4351 8.53257L14.4352 8.53224Z" fill="white"/>
<path d="M6.51903 7.60166C6.01566 7.60987 5.62335 7.21551 5.57829 6.76832C5.51638 6.15333 5.98497 5.76091 6.40591 5.72072C7.02803 5.6613 7.41753 6.12761 7.45697 6.56001C7.51175 7.16117 7.04154 7.60912 6.51914 7.60155L6.51903 7.60166Z" fill="white"/>
</g>
<defs>
<clipPath id="clip0_1313_84">
<rect width="15" height="15" fill="white" transform="translate(0 0.857178)"/>
</clipPath>
</defs>
</svg>
