<svg width="16" height="16" viewBox="0 0 16 16" fill="none" xmlns="http://www.w3.org/2000/svg">
<g clip-path="url(#clip0_1141_99)">
<path d="M14.5372 6.03428C14.6155 6.11548 14.7097 6.17969 14.8139 6.22295C14.9181 6.2662 15.0301 6.28757 15.1429 6.28572C15.3693 6.28276 15.5856 6.19149 15.7457 6.03139C15.9059 5.87128 15.9971 5.65497 16 5.42857V0.857143C15.9971 0.630735 15.9059 0.414433 15.7457 0.254324C15.5856 0.0942161 15.3693 0.00295996 15.1429 0H10.5715C10.3451 0.00295996 10.1288 0.0942161 9.96867 0.254324C9.80855 0.414433 9.7173 0.630735 9.71434 0.857143C9.71315 0.969855 9.73483 1.08164 9.77804 1.18574C9.82126 1.28985 9.88511 1.38412 9.96576 1.46285L11.4286 2.93715C11.4563 2.9638 11.4783 2.99575 11.4933 3.03109C11.5083 3.06644 11.5161 3.10445 11.5161 3.14285C11.5161 3.18127 11.5083 3.21928 11.4933 3.25461C11.4783 3.28996 11.4563 3.32192 11.4286 3.34857L7.36006 7.42857C7.19954 7.58928 7.10938 7.80715 7.10938 8.03428C7.10938 8.26143 7.19954 8.47928 7.36006 8.64C7.52076 8.80052 7.73863 8.89068 7.96576 8.89068C8.19291 8.89068 8.41076 8.80052 8.57148 8.64L12.6515 4.57143C12.7061 4.51613 12.7796 4.48348 12.8572 4.48C12.9295 4.48212 12.9986 4.51056 13.0515 4.56L14.5372 6.03428Z" fill="#FFC226"/>
<path d="M13.0629 6.98265C13.0362 6.955 13.0043 6.933 12.9689 6.91799C12.9336 6.90296 12.8955 6.89521 12.8571 6.89521C12.8187 6.89521 12.7807 6.90296 12.7454 6.91799C12.71 6.933 12.6781 6.955 12.6514 6.98265L11.5086 8.12551C11.4592 8.18292 11.4309 8.25552 11.4286 8.33123V14.0456C11.4286 14.1213 11.3985 14.194 11.3449 14.2476C11.2913 14.3012 11.2186 14.3312 11.1429 14.3312H2C1.92423 14.3312 1.85155 14.3012 1.79797 14.2476C1.74439 14.194 1.71428 14.1213 1.71428 14.0456V4.90265C1.70761 4.86149 1.71003 4.81936 1.72136 4.77924C1.73271 4.73911 1.75268 4.70195 1.77991 4.67036C1.80715 4.63877 1.84095 4.61353 1.87897 4.5964C1.917 4.57928 1.95831 4.57068 2 4.57123H7.71428C7.78999 4.56884 7.86259 4.54061 7.92 4.49123L9.06285 3.34836C9.09051 3.32171 9.11251 3.28976 9.12752 3.25441C9.14255 3.21907 9.15029 3.18105 9.15029 3.14265C9.15029 3.10424 9.14255 3.06624 9.12752 3.03089C9.11251 2.99555 9.09051 2.96359 9.06285 2.93693C9.00544 2.88755 8.93284 2.85932 8.85715 2.85693H2C1.47049 2.85993 0.963525 3.07161 0.589101 3.44604C0.214677 3.82047 0.00300012 4.32743 0 4.85693V13.9998C0.00300012 14.5293 0.214677 15.0362 0.589101 15.4106C0.963525 15.7852 1.47049 15.9968 2 15.9998H11.1429C11.6724 15.9968 12.1793 15.7852 12.5538 15.4106C12.9282 15.0362 13.1399 14.5293 13.1429 13.9998V7.14265C13.1314 7.08299 13.1037 7.02764 13.0629 6.98265Z" fill="#FFC226"/>
</g>
<defs>
<clipPath id="clip0_1141_99">
<rect width="16" height="16" fill="white"/>
</clipPath>
</defs>
</svg>
