<svg width="224" height="36" viewBox="0 0 224 36" fill="none" xmlns="http://www.w3.org/2000/svg">
<path d="M16.4523 33.1252C15.0544 33.7908 13.5899 32.8323 12.0589 30.2495C11.5264 28.5187 11.1736 27.66 11.0005 27.6733C9.16325 30.3493 7.58562 31.7073 6.2676 31.7472C3.88451 31.8138 1.91413 24.0854 0.356465 8.56202C0.223332 5.14048 0.875686 2.99037 2.31353 2.11169C3.75137 1.2197 4.80979 2.08507 5.48877 4.7078C6.18106 7.31722 6.61375 11.5708 6.78682 17.4687C6.95989 23.3665 7.54568 26.2954 8.54418 26.2555C9.44949 26.2288 10.6743 18.7867 12.2187 3.92897C12.9908 3.19673 14.0093 2.43121 15.2741 1.63241C16.459 1.60578 17.1912 2.51775 17.4708 4.36831C16.8184 7.56351 16.4789 12.2432 16.4523 18.4072C16.439 24.558 16.6454 27.6401 17.0714 27.6534C17.4974 27.6534 18.3495 26.8612 19.6276 25.2769C21.7311 21.3894 23.0957 14.4532 23.7214 4.46816C24.4936 3.73592 25.6585 3.01034 27.2162 2.29142C28.4144 2.25148 29.1466 3.15679 29.4129 5.00735C26.5505 18.0678 23.7747 25.8827 21.0854 28.4522C19.4079 30.9018 17.8635 32.4595 16.4523 33.1252ZM43.3306 18.587C43.1176 19.5322 41.753 20.2046 39.2368 20.604C36.7339 20.99 35.1762 21.6224 34.5638 22.5011C33.6718 23.8058 34.1444 25.3768 35.9817 27.214C38.7375 29.0779 40.6081 30.0098 41.5932 30.0098C42.3122 29.8368 42.7582 29.6504 42.9312 29.4507L43.3706 28.8116C43.4904 28.1859 43.517 27.4936 43.4505 26.7348C43.0111 25.2437 42.9512 24.2585 43.2707 23.7792L43.3306 23.6993C43.3972 23.6061 43.4904 23.5529 43.6102 23.5396H45.088C46.9119 23.5396 47.9038 24.6579 48.0635 26.8945C48.2632 27.8131 48.0635 29.0912 47.4644 30.7288L46.3861 32.3264C44.5222 34.0837 42.6317 34.9624 40.7146 34.9624C38.9572 34.9624 36.9336 34.3234 34.6437 33.0453C32.6866 31.8604 31.7547 31.1947 31.8479 31.0483C30.7828 30.5291 29.771 29.3309 28.8124 27.4537C28.2932 25.1638 28.5461 23.2733 29.5713 21.7822C30.5432 20.3577 32.7731 18.8066 36.2612 17.1292C35.9817 16.9827 35.6488 16.8096 35.2627 16.6099C33.3989 15.3452 32.5734 13.934 32.7865 12.3763L32.8064 12.2165C33.2325 8.98139 36.7938 5.65305 43.4904 2.23151C46.193 1.05994 48.1634 0.474148 49.4015 0.474148C50.0406 0.474148 50.6264 1.45934 51.1589 3.42971L51.119 3.66936C51.079 4.00219 50.0406 4.18858 48.0036 4.22852C46.8187 4.49478 45.2677 5.18708 43.3506 6.3054C40.4483 8.00951 38.9173 9.50061 38.7575 10.7787C38.3182 12.8556 39.0238 14.4399 40.8743 15.5316C42.7249 16.6233 43.5437 17.6417 43.3306 18.587ZM53.8743 34.2235C53.8476 34.4765 53.8144 34.7228 53.7744 34.9624L53.5148 35.1222H53.2352C51.4113 35.1222 50.4661 32.3597 50.3995 26.8346C50.3329 21.2962 50.6125 16.6632 51.2382 12.9355V11.8571C51.2382 11.0316 51.5644 9.30091 52.2168 6.66486C52.483 5.55985 52.6162 4.63457 52.6162 3.88902V3.42971C52.6162 3.20339 52.3765 2.62426 51.8972 1.69232V1.53256C51.9239 1.31955 52.0171 1.21304 52.1768 1.21304H52.5962C54.2737 0.853579 55.8313 0.960085 57.2692 1.53256C57.5754 1.19973 57.8417 1.03331 58.068 1.03331C59.173 1.03331 60.7773 1.6191 62.8808 2.79067C67.9665 6.21221 70.2897 9.54055 69.8503 12.7757L69.8303 12.9355C69.6173 14.4931 68.5256 15.9043 66.5553 17.1691C66.1692 17.3688 65.8297 17.5419 65.5368 17.6883C68.2128 19.3658 69.8037 20.9168 70.3096 22.3413C70.8422 23.8324 70.5892 25.7229 69.5508 28.0128C68.2327 29.89 67.0345 31.0882 65.9562 31.6074C65.9961 31.7539 64.9976 32.4196 62.9606 33.6045C60.6042 34.8825 58.6471 35.5216 57.0895 35.5216C55.9046 35.5216 54.8328 35.0889 53.8743 34.2235ZM59.1863 5.08723C58.7736 6.99104 58.2544 9.95992 57.6286 13.9939C57.0029 15.7912 56.264 19.1861 55.412 24.1786C55.625 24.1253 55.8513 24.0987 56.0909 24.0987H57.409C57.5022 24.112 57.5687 24.1653 57.6087 24.2585L57.6486 24.3384C57.8084 24.8176 57.5022 25.8028 56.73 27.2939C56.4904 28.0528 56.3439 28.7451 56.2907 29.3708L56.5103 30.0098C56.6168 30.2095 56.9696 30.3959 57.5687 30.569C58.4341 30.569 60.3246 29.6371 63.2402 27.7732C65.3437 25.936 66.1625 24.365 65.6965 23.0603C65.377 22.1816 64.1522 21.5492 62.0221 21.1631C59.8919 20.7637 58.8468 20.0914 58.8868 19.1461C58.94 18.2009 59.9252 17.1824 61.8423 16.0907C63.7594 14.999 64.7846 13.4147 64.9177 11.3379C65.1041 10.0598 64.1256 8.56867 61.9821 6.86456C60.9304 6.03913 59.9984 5.44669 59.1863 5.08723ZM78.3351 18.547C78.4416 17.6018 79.6265 16.5833 81.8897 15.4916C84.153 14.3999 85.4111 12.8156 85.6641 10.7388C85.9437 9.46067 85.2048 7.96957 83.4474 6.26546C81.2507 5.14714 78.9142 5.07392 76.4379 6.04579C75.1199 7.31056 74.128 7.41707 73.4624 6.36531L73.5023 6.12567C74.128 3.99553 75.3196 2.571 77.077 1.85208C81.0177 0.693818 84.5324 1.31955 87.6211 3.72927C90.7231 6.12567 91.9347 8.94145 91.2557 12.1766L91.2157 12.3364C90.9095 13.894 89.5849 15.3052 87.2417 16.57C86.7757 16.7697 86.3763 16.9428 86.0435 17.0892C89.0257 18.7667 90.7697 20.3177 91.2757 21.7422C91.8215 23.2333 91.4354 25.1238 90.1174 27.4137C88.4932 29.2909 87.0487 30.4891 85.7839 31.0083C85.8238 31.1548 84.6456 31.8205 82.2492 33.0054C79.4667 34.2834 77.1768 34.9225 75.3795 34.9225C73.4224 34.9225 71.7982 34.0438 70.5068 32.2864L69.9476 30.6888C69.8944 29.0513 70.1274 27.7732 70.6466 26.8546C71.5785 24.6179 72.9764 23.4996 74.8403 23.4996H76.3381C76.4579 23.5129 76.5378 23.5662 76.5777 23.6594L76.6176 23.7393C76.7774 24.2185 76.378 25.2037 75.4194 26.6948C75.0866 27.4537 74.8736 28.146 74.7804 28.7717L75.02 29.4107C75.1265 29.6104 75.5126 29.7968 76.1783 29.9699C77.1901 29.9699 79.4201 29.038 82.8683 27.1741C85.3845 25.3369 86.4096 23.7659 85.9437 22.4612C85.6108 21.5825 84.2329 20.9501 81.8099 20.564C79.3868 20.1646 78.2286 19.4923 78.3351 18.547ZM119.29 0.474148C119.93 0.474148 120.648 1.45934 121.447 3.42971V3.66936C121.447 4.00219 120.435 4.18858 118.412 4.22852C117.254 4.49478 115.789 5.18708 114.018 6.3054C111.356 8.00951 110.024 9.50061 110.024 10.7787V11.3379C110.024 12.3364 111.302 13.2683 113.859 14.1337C120.249 17.1292 123.444 19.7918 123.444 22.1217C123.444 23.6128 122.379 25.5033 120.249 27.7932C117.972 29.6704 116.109 30.8686 114.657 31.3878C114.657 31.5342 113.246 32.1999 110.424 33.3848C107.202 34.6629 104.699 35.3019 102.915 35.3019C100.971 35.3019 99.6666 34.4232 99.0009 32.6659V31.0683C99.5335 29.4307 100.226 28.1526 101.078 27.234C102.795 24.9974 104.579 23.879 106.43 23.879H107.948C108.054 23.8924 108.107 23.9456 108.107 24.0388V24.1187C108.107 24.598 107.362 25.5832 105.871 27.0742C105.272 27.8331 104.819 28.5254 104.513 29.1511V29.7902C104.539 29.9899 104.859 30.1763 105.471 30.3493C106.483 30.3493 109.039 29.4174 113.14 27.5535C116.282 25.7163 117.853 24.1453 117.853 22.8406C117.853 21.3628 115.057 19.6587 109.465 17.7283C109.359 17.6351 108.64 17.2623 107.308 16.6099C105.285 15.3452 104.273 13.934 104.273 12.3763V12.2165C104.273 8.98139 107.388 5.65305 113.619 2.23151C116.162 1.05994 118.052 0.474148 119.29 0.474148ZM137.588 18.587C137.375 19.5322 136.011 20.2046 133.495 20.604C130.992 20.99 129.434 21.6224 128.822 22.5011C127.93 23.8058 128.402 25.3768 130.239 27.214C132.995 29.0779 134.866 30.0098 135.851 30.0098C136.57 29.8368 137.016 29.6504 137.189 29.4507L137.628 28.8116C137.748 28.1859 137.775 27.4936 137.708 26.7348C137.269 25.2437 137.209 24.2585 137.529 23.7792L137.588 23.6993C137.655 23.6061 137.748 23.5529 137.868 23.5396H139.346C141.17 23.5396 142.162 24.6579 142.321 26.8945C142.521 27.8131 142.321 29.0912 141.722 30.7288L140.644 32.3264C138.78 34.0837 136.889 34.9624 134.972 34.9624C133.215 34.9624 131.191 34.3234 128.901 33.0453C126.944 31.8604 126.012 31.1947 126.106 31.0483C125.041 30.5291 124.029 29.3309 123.07 27.4537C122.551 25.1638 122.804 23.2733 123.829 21.7822C124.801 20.3577 127.031 18.8066 130.519 17.1292C130.239 16.9827 129.907 16.8096 129.521 16.6099C127.657 15.3452 126.831 13.934 127.044 12.3763L127.064 12.2165C127.49 8.98139 131.052 5.65305 137.748 2.23151C140.451 1.05994 142.421 0.474148 143.659 0.474148C144.298 0.474148 144.884 1.45934 145.417 3.42971L145.377 3.66936C145.337 4.00219 144.298 4.18858 142.261 4.22852C141.077 4.49478 139.526 5.18708 137.608 6.3054C134.706 8.00951 133.175 9.50061 133.015 10.7787C132.576 12.8556 133.282 14.4399 135.132 15.5316C136.983 16.6233 137.801 17.6417 137.588 18.587ZM150.588 8.16262C154.17 5.34018 156.766 4.54804 158.377 5.78618C160.533 5.78618 162.164 11.9037 163.269 24.1387C163.975 25.217 165.22 26.5883 167.004 28.2525V28.5121C166.871 28.9514 166.311 29.1711 165.326 29.1711H164.687C162.238 29.1711 160.454 28.2991 159.335 26.555C158.23 24.811 157.658 21.6224 157.618 16.9894C157.578 12.3563 157.445 9.61377 157.218 8.76172C156.992 7.90966 155.514 8.09605 152.785 9.32088C150.043 10.6922 148.358 16.5633 147.733 26.9345C147.014 27.4936 145.942 28.0395 144.518 28.572C143.439 28.572 142.793 27.8398 142.58 26.3753C144.737 14.6329 145.816 7.87638 145.816 6.1057C145.816 5.67967 145.689 4.8609 145.436 3.64939V3.26995C145.463 3.09688 145.549 3.01034 145.696 3.01034H146.075C147.154 3.01034 148.358 4.04213 149.69 6.1057C150.142 7.47698 150.442 8.16262 150.588 8.16262ZM188.314 0.474148C188.953 0.474148 189.672 1.45934 190.471 3.42971V3.66936C190.471 4.00219 189.459 4.18858 187.435 4.22852C186.277 4.49478 184.813 5.18708 183.042 6.3054C180.379 8.00951 179.048 9.50061 179.048 10.7787V11.3379C179.048 12.3364 180.326 13.2683 182.882 14.1337C189.272 17.1292 192.468 19.7918 192.468 22.1217C192.468 23.6128 191.403 25.5033 189.272 27.7932C186.996 29.6704 185.132 30.8686 183.681 31.3878C183.681 31.5342 182.27 32.1999 179.447 33.3848C176.225 34.6629 173.722 35.3019 171.938 35.3019C169.995 35.3019 168.69 34.4232 168.024 32.6659V31.0683C168.557 29.4307 169.249 28.1526 170.101 27.234C171.819 24.9974 173.603 23.879 175.453 23.879H176.971C177.077 23.8924 177.131 23.9456 177.131 24.0388V24.1187C177.131 24.598 176.385 25.5832 174.894 27.0742C174.295 27.8331 173.842 28.5254 173.536 29.1511V29.7902C173.563 29.9899 173.882 30.1763 174.495 30.3493C175.506 30.3493 178.063 29.4174 182.163 27.5535C185.305 25.7163 186.876 24.1453 186.876 22.8406C186.876 21.3628 184.08 19.6587 178.489 17.7283C178.382 17.6351 177.663 17.2623 176.332 16.6099C174.308 15.3452 173.296 13.934 173.296 12.3763V12.2165C173.296 8.98139 176.412 5.65305 182.642 2.23151C185.185 1.05994 187.076 0.474148 188.314 0.474148ZM206.612 18.587C206.399 19.5322 205.034 20.2046 202.518 20.604C200.015 20.99 198.457 21.6224 197.845 22.5011C196.953 23.8058 197.426 25.3768 199.263 27.214C202.019 29.0779 203.889 30.0098 204.874 30.0098C205.593 29.8368 206.039 29.6504 206.212 29.4507L206.652 28.8116C206.772 28.1859 206.798 27.4936 206.732 26.7348C206.292 25.2437 206.232 24.2585 206.552 23.7792L206.612 23.6993C206.678 23.6061 206.772 23.5529 206.891 23.5396H208.369C210.193 23.5396 211.185 24.6579 211.345 26.8945C211.544 27.8131 211.345 29.0912 210.746 30.7288L209.667 32.3264C207.803 34.0837 205.913 34.9624 203.996 34.9624C202.238 34.9624 200.215 34.3234 197.925 33.0453C195.968 31.8604 195.036 31.1947 195.129 31.0483C194.064 30.5291 193.052 29.3309 192.094 27.4537C191.574 25.1638 191.827 23.2733 192.853 21.7822C193.824 20.3577 196.054 18.8066 199.542 17.1292C199.263 16.9827 198.93 16.8096 198.544 16.6099C196.68 15.3452 195.855 13.934 196.068 12.3763L196.088 12.2165C196.514 8.98139 200.075 5.65305 206.772 2.23151C209.474 1.05994 211.445 0.474148 212.683 0.474148C213.322 0.474148 213.908 1.45934 214.44 3.42971L214.4 3.66936C214.36 4.00219 213.322 4.18858 211.285 4.22852C210.1 4.49478 208.549 5.18708 206.632 6.3054C203.73 8.00951 202.199 9.50061 202.039 10.7787C201.599 12.8556 202.305 14.4399 204.156 15.5316C206.006 16.6233 206.825 17.6417 206.612 18.587ZM215.738 1.65238H216.157C218.793 1.1731 221.123 1.67235 223.147 3.15013V3.54954C222.694 4.85424 222.042 7.84975 221.189 12.5361C220.178 14.999 218.893 20.9568 217.335 30.4092L217.076 30.5291H216.796C214.972 30.5291 214.027 28.1793 213.96 23.4796C213.894 18.7667 214.173 14.8193 214.799 11.6374V10.7188C214.799 10.0132 215.125 8.53539 215.778 6.28543C216.044 5.3535 216.177 4.56801 216.177 3.92897V3.54954C216.177 3.36315 215.937 2.87055 215.458 2.07175V1.93196C215.485 1.74557 215.578 1.65238 215.738 1.65238Z" fill="white"/>
</svg>
