<svg width="15" height="12" viewBox="0 0 15 12" fill="none" xmlns="http://www.w3.org/2000/svg">
<path d="M2.08008 2.92163C2.10938 2.74585 2.02148 2.57007 1.9043 2.45288L0.585938 0.87085V0.607178H4.6875L7.85156 7.57983L10.6641 0.607178H14.5605V0.87085L13.4473 1.95483C13.3594 2.01343 13.3008 2.13062 13.3301 2.2478V10.2166C13.3008 10.3337 13.3594 10.4802 13.4473 10.5388L14.5605 11.6228V11.8572H8.99414V11.6228L10.1367 10.5095C10.2539 10.3923 10.2539 10.363 10.2539 10.1873V3.77124L7.06055 11.8572H6.62109L2.92969 3.77124V9.19116C2.90039 9.39624 2.95898 9.63062 3.13477 9.8064L4.62891 11.5935V11.8279H0.410156V11.5935L1.9043 9.8064C2.05078 9.63062 2.10938 9.39624 2.08008 9.19116V2.92163Z" fill="white"/>
</svg>
