<svg width="15" height="12" viewBox="0 0 15 12" fill="none" xmlns="http://www.w3.org/2000/svg">
<path d="M5.91797 8.37085C5.91797 8.98608 5.5957 9.98218 4.83398 9.98218C4.07227 9.98218 3.75 8.98608 3.75 8.37085C3.75 7.75562 4.07227 6.75952 4.83398 6.75952C5.5957 6.75952 5.91797 7.75562 5.91797 8.37085ZM14.5312 6.90601C14.5312 7.84351 14.4141 8.8103 14.0039 9.68921C12.8906 11.9158 9.84375 11.8572 7.64648 11.8572C5.44922 11.8572 2.19727 11.9451 1.05469 9.68921C0.615234 8.8396 0.46875 7.84351 0.46875 6.90601C0.46875 5.67554 0.849609 4.50366 1.66992 3.56616C1.52344 3.09741 1.43555 2.62866 1.43555 2.13062C1.43555 1.51538 1.58203 1.19312 1.875 0.607178C3.19336 0.607178 4.04297 0.87085 5.06836 1.66187C5.91797 1.48608 6.79688 1.3689 7.64648 1.3689C8.4375 1.3689 9.25781 1.45679 10.0195 1.66187C11.0156 0.87085 11.8652 0.607178 13.1836 0.607178C13.4473 1.19312 13.5938 1.51538 13.5938 2.13062C13.5938 2.62866 13.5352 3.09741 13.3887 3.53687C14.1797 4.50366 14.5312 5.67554 14.5312 6.90601ZM12.627 8.37085C12.627 7.08179 11.8652 5.96851 10.4883 5.96851C9.93164 5.96851 9.4043 6.0564 8.84766 6.14429C8.4082 6.20288 7.96875 6.23218 7.5293 6.23218C7.06055 6.23218 6.65039 6.20288 6.21094 6.14429C5.6543 6.0564 5.12695 5.96851 4.57031 5.96851C3.19336 5.96851 2.40234 7.08179 2.40234 8.37085C2.40234 10.949 4.74609 11.3298 6.79688 11.3298H8.23242C10.2832 11.3298 12.627 10.949 12.627 8.37085ZM10.2246 6.75952C10.957 6.75952 11.2793 7.75562 11.2793 8.37085C11.2793 8.98608 10.957 9.98218 10.2246 9.98218C9.46289 9.98218 9.14062 8.98608 9.14062 8.37085C9.14062 7.75562 9.46289 6.75952 10.2246 6.75952Z" fill="white"/>
</svg>
