<svg width="15" height="16" viewBox="0 0 15 16" fill="none" xmlns="http://www.w3.org/2000/svg">
<g clip-path="url(#clip0_1313_90)">
<path d="M14.1074 6.29467L13.2849 5.47217C12.7249 5.92842 11.7561 6.31217 11.1461 6.51092C11.1186 6.51967 11.0924 6.53092 11.0649 6.54092C10.9036 6.69967 10.7461 6.86717 10.5986 7.04342L11.7999 8.24467L14.0461 10.4909L14.1074 10.4297C15.2486 9.28717 15.2486 7.43592 14.1074 6.29467Z" fill="url(#paint0_linear_1313_90)"/>
<path d="M14.1074 6.29467L13.2849 5.47217C12.7249 5.92842 11.7561 6.31217 11.1461 6.51092C11.1186 6.51967 11.0924 6.53092 11.0649 6.54092C10.9036 6.69967 10.7461 6.86717 10.5986 7.04342L11.7999 8.24467L14.0461 10.4909L14.1074 10.4297C15.2486 9.28717 15.2486 7.43592 14.1074 6.29467Z" fill="url(#paint1_linear_1313_90)"/>
<path d="M3.18863 8.24352L5.52738 5.90477C5.58863 5.73727 5.65488 5.56852 5.72863 5.40352C6.43363 3.82352 8.01613 3.28727 9.50488 3.26102C9.70113 2.91352 10.0724 2.68227 10.4899 2.67727L9.56113 1.74852C8.41988 0.607266 6.56863 0.607266 5.42738 1.74852L5.36613 1.80977L0.942383 6.23352L3.18863 8.47977C3.12363 8.41477 3.12363 8.30852 3.18863 8.24352Z" fill="url(#paint2_linear_1313_90)"/>
<path d="M3.18863 8.24352L5.52738 5.90477C5.58863 5.73727 5.65488 5.56852 5.72863 5.40352C6.43363 3.82352 8.01613 3.28727 9.50488 3.26102C9.70113 2.91352 10.0724 2.68227 10.4899 2.67727L9.56113 1.74852C8.41988 0.607266 6.56863 0.607266 5.42738 1.74852L5.36613 1.80977L0.942383 6.23352L3.18863 8.47977C3.12363 8.41477 3.12363 8.30852 3.18863 8.24352Z" fill="url(#paint3_linear_1313_90)"/>
<path d="M11.27 3.45724C11.2687 3.45599 11.2687 3.45599 11.27 3.45724V3.45724Z" fill="#9BA1A7"/>
<path d="M11.8001 8.2434C11.8651 8.3084 11.8651 8.41465 11.8001 8.47965L9.73133 10.5484L9.22258 11.0571L7.84508 12.4346L7.61258 12.6671C7.54758 12.7321 7.44133 12.7321 7.37633 12.6671L5.28258 10.5734L3.90633 9.19715L3.18883 8.47965L0.942578 6.2334L0.881328 6.29465C-0.259922 7.4359 -0.259922 9.28715 0.881328 10.4284L1.40133 10.9484L5.30758 14.8546L5.42758 14.9746C6.56883 16.1159 8.42008 16.1159 9.56133 14.9746L9.62258 14.9134L14.0463 10.4896L11.8001 8.2434Z" fill="url(#paint4_linear_1313_90)"/>
<path d="M11.2691 3.4572C11.2691 3.45595 11.2691 3.45595 11.2691 3.4572C11.1878 3.2772 11.0441 3.1272 10.8528 3.0397C10.8466 3.0372 10.8416 3.03345 10.8353 3.03095C10.8103 3.0197 10.7841 3.01095 10.7591 3.0022C10.7741 3.0922 10.7641 3.18845 10.7253 3.27845C10.7153 3.30095 10.7028 3.3222 10.6891 3.34345C10.5603 3.5522 10.2966 3.6422 10.0653 3.54345C9.9553 3.4972 9.87155 3.4147 9.81905 3.3172C9.7853 3.3647 9.7553 3.4172 9.73155 3.47345C9.54905 3.90095 9.74655 4.3947 10.1741 4.5772C10.6016 4.7597 11.0953 4.5622 11.2778 4.1347C11.3741 3.90845 11.3641 3.6647 11.2691 3.4572Z" fill="#001C38"/>
<path d="M5.53652 5.88086C5.53402 5.88836 5.52902 5.89586 5.52777 5.90461C5.09402 8.19711 4.88027 8.51961 3.90527 9.19711L4.25152 9.54336C4.47777 9.31961 4.80277 8.93461 5.11027 8.33836C5.48902 7.60836 5.54152 6.50586 5.53652 5.88086Z" fill="url(#paint5_linear_1313_90)"/>
<path d="M10.4702 6.88342C10.4639 6.88842 10.4564 6.89467 10.4514 6.89842C10.2339 7.07342 10.0302 7.29592 9.85265 7.56217C9.31765 8.36092 9.01015 9.55467 9.22265 11.0572L9.2214 11.0584C9.2214 11.0584 9.2214 11.0584 9.2214 11.0597L10.0364 10.2597C10.0014 10.1409 9.9689 10.0172 9.9389 9.88842C9.65765 8.69842 9.8664 7.91467 10.5977 7.04592C10.6889 6.93717 10.9002 6.72092 11.0864 6.53467C11.0789 6.53717 11.0727 6.53967 11.0652 6.54217C10.8614 6.61717 10.6614 6.73217 10.4702 6.88342Z" fill="url(#paint6_linear_1313_90)"/>
<path d="M9.85278 7.56226C9.31778 8.36101 9.00903 9.55476 9.22153 11.0585L9.22277 11.0573C9.01027 9.55476 9.31778 8.36101 9.85278 7.56226Z" fill="white"/>
<path d="M9.85278 7.56226C9.31778 8.36101 9.00903 9.55476 9.22153 11.0585L9.22277 11.0573C9.01027 9.55476 9.31778 8.36101 9.85278 7.56226Z" fill="url(#paint7_linear_1313_90)"/>
<path d="M13.8517 4.33973C13.3729 3.66473 11.9217 3.35223 11.9217 3.35223C11.9217 3.35223 11.7242 2.80473 11.2129 2.63348C10.7504 2.47973 10.0542 2.75598 10.0542 2.75598L10.0642 2.76473C10.1967 2.70973 10.3404 2.67848 10.4904 2.67598C10.5267 2.67598 10.5617 2.67598 10.5979 2.67973C11.0979 2.72098 11.4967 3.07723 11.6142 3.53723C14.0517 4.14098 14.0229 4.86973 13.2842 5.47098C13.2554 5.49473 13.2242 5.51848 13.1929 5.54098L13.2054 5.55223C13.2067 5.55348 14.3104 4.98723 13.8517 4.33973Z" fill="url(#paint8_linear_1313_90)"/>
<path d="M11.6154 3.5385C11.4966 3.0785 11.0991 2.72225 10.5991 2.681C10.5629 2.6785 10.5266 2.67725 10.4916 2.67725C10.3416 2.6785 10.1979 2.711 10.0654 2.766C9.83037 2.86475 9.63287 3.0385 9.50787 3.261C8.01787 3.28725 6.43662 3.82225 5.73162 5.4035C5.66162 5.561 5.59912 5.721 5.53912 5.881C5.54412 6.506 5.49037 7.60975 5.11412 8.3385C4.80662 8.93475 4.48162 9.31975 4.25537 9.5435L5.28537 10.5735L7.37912 12.6672C7.44412 12.7322 7.55037 12.7322 7.61537 12.6672L7.84787 12.4347L9.22412 11.0585C9.01162 9.55475 9.32037 8.361 9.85537 7.56225C10.0341 7.29475 10.2379 7.07225 10.4554 6.896C10.4616 6.891 10.4666 6.88725 10.4729 6.88225C10.6629 6.73225 10.8641 6.616 11.0679 6.53975C11.0754 6.53725 11.0816 6.53475 11.0891 6.53225C11.1091 6.52475 11.1291 6.51725 11.1491 6.50975C11.7266 6.321 12.6266 5.966 13.1966 5.541C13.2279 5.51725 13.2579 5.49475 13.2879 5.471C14.0241 4.86975 14.0529 4.141 11.6154 3.5385ZM11.2779 4.13475C11.0954 4.56225 10.6004 4.75975 10.1741 4.57725C9.74662 4.39475 9.54912 3.89975 9.73162 3.4735C9.75537 3.41725 9.78537 3.36475 9.81912 3.31725C9.87162 3.41475 9.95537 3.496 10.0654 3.5435C10.2979 3.64225 10.5616 3.55225 10.6891 3.3435C10.6916 3.3385 10.6941 3.3335 10.6979 3.3285C10.7079 3.31225 10.7179 3.29725 10.7254 3.27975C10.7641 3.18975 10.7741 3.0935 10.7591 3.0035C10.7854 3.01225 10.8104 3.021 10.8354 3.03225C10.8416 3.03475 10.8466 3.0385 10.8529 3.041C11.0441 3.1285 11.1879 3.2785 11.2691 3.45725L11.2704 3.4585C11.2704 3.4585 11.2704 3.4585 11.2691 3.4585C11.3304 3.59475 11.3554 3.746 11.3391 3.8985C11.3304 3.97725 11.3116 4.05725 11.2779 4.13475Z" fill="white"/>
</g>
<defs>
<linearGradient id="paint0_linear_1313_90" x1="5.19911" y1="16.0058" x2="15.6845" y2="5.32864" gradientUnits="userSpaceOnUse">
<stop stop-color="#5D47FF"/>
<stop offset="0.5903" stop-color="#846DFF"/>
<stop offset="1" stop-color="#A36CFF"/>
</linearGradient>
<linearGradient id="paint1_linear_1313_90" x1="7.08711" y1="13.8606" x2="15.9801" y2="5.16743" gradientUnits="userSpaceOnUse">
<stop stop-color="#5D47FF"/>
<stop offset="0.5903" stop-color="#846DFF"/>
<stop offset="1" stop-color="#A36CFF"/>
</linearGradient>
<linearGradient id="paint2_linear_1313_90" x1="-0.312205" y1="10.5936" x2="10.1731" y2="-0.0835761" gradientUnits="userSpaceOnUse">
<stop stop-color="#5D47FF"/>
<stop offset="0.5903" stop-color="#846DFF"/>
<stop offset="1" stop-color="#A36CFF"/>
</linearGradient>
<linearGradient id="paint3_linear_1313_90" x1="-4.93373" y1="13.3715" x2="13.4518" y2="-2.54934" gradientUnits="userSpaceOnUse">
<stop stop-color="#5D47FF"/>
<stop offset="0.5903" stop-color="#846DFF"/>
<stop offset="1" stop-color="#A36CFF"/>
</linearGradient>
<linearGradient id="paint4_linear_1313_90" x1="13.316" y1="2.46916" x2="2.25804" y2="13.6604" gradientUnits="userSpaceOnUse">
<stop stop-color="#5D47FF"/>
<stop offset="0.5903" stop-color="#846DFF"/>
<stop offset="1" stop-color="#A36CFF"/>
</linearGradient>
<linearGradient id="paint5_linear_1313_90" x1="3.90607" y1="7.71199" x2="5.53724" y2="7.71199" gradientUnits="userSpaceOnUse">
<stop stop-color="#5D47FF"/>
<stop offset="0.5903" stop-color="#846DFF"/>
<stop offset="1" stop-color="#A36CFF"/>
</linearGradient>
<linearGradient id="paint6_linear_1313_90" x1="-18.4304" y1="97.4974" x2="-0.0903628" y2="40.085" gradientUnits="userSpaceOnUse">
<stop stop-color="#5D47FF"/>
<stop offset="0.5903" stop-color="#846DFF"/>
<stop offset="1" stop-color="#A36CFF"/>
</linearGradient>
<linearGradient id="paint7_linear_1313_90" x1="-18.684" y1="97.4164" x2="-0.343948" y2="40.004" gradientUnits="userSpaceOnUse">
<stop stop-color="#5D47FF"/>
<stop offset="0.5903" stop-color="#846DFF"/>
<stop offset="1" stop-color="#A36CFF"/>
</linearGradient>
<linearGradient id="paint8_linear_1313_90" x1="10.0543" y1="4.07063" x2="13.9635" y2="4.07063" gradientUnits="userSpaceOnUse">
<stop stop-color="#5D47FF"/>
<stop offset="0.5903" stop-color="#846DFF"/>
<stop offset="1" stop-color="#A36CFF"/>
</linearGradient>
<clipPath id="clip0_1313_90">
<rect width="15" height="15" fill="white" transform="translate(0 0.857178)"/>
</clipPath>
</defs>
</svg>
