<svg width="15" height="13" viewBox="0 0 15 13" fill="none" xmlns="http://www.w3.org/2000/svg">
<path d="M13.4473 3.1853C13.4473 3.33179 13.4473 3.44897 13.4473 3.59546C13.4473 7.66772 10.3711 12.3259 4.7168 12.3259C2.95898 12.3259 1.34766 11.8279 0 10.949C0.234375 10.9783 0.46875 11.0076 0.732422 11.0076C2.16797 11.0076 3.48633 10.5095 4.54102 9.68921C3.19336 9.65991 2.05078 8.78101 1.66992 7.55054C1.875 7.57983 2.05078 7.60913 2.25586 7.60913C2.51953 7.60913 2.8125 7.55054 3.04688 7.49194C1.64062 7.19897 0.585938 5.96851 0.585938 4.47437V4.44507C0.996094 4.67944 1.49414 4.79663 1.99219 4.82593C1.14258 4.26929 0.615234 3.33179 0.615234 2.2771C0.615234 1.69116 0.761719 1.16382 1.02539 0.724365C2.54883 2.57007 4.83398 3.80054 7.38281 3.94702C7.32422 3.71265 7.29492 3.47827 7.29492 3.2439C7.29492 1.54468 8.67188 0.167725 10.3711 0.167725C11.25 0.167725 12.041 0.519287 12.627 1.13452C13.3008 0.988037 13.9746 0.724365 14.5605 0.372803C14.3262 1.10522 13.8574 1.69116 13.2129 2.07202C13.8281 2.01343 14.4434 1.83765 14.9707 1.60327C14.5605 2.21851 14.0332 2.74585 13.4473 3.1853Z" fill="white"/>
</svg>
