<svg width="1440" height="683" viewBox="0 0 1440 683" fill="none" xmlns="http://www.w3.org/2000/svg">
<path fill-rule="evenodd" clip-rule="evenodd" d="M226.668 0C129.856 0 58.9105 5.1687 0 12.7441V94V97V586V590V668.949C46.9674 662.556 86.4435 654.666 125.919 646.776C216.539 628.663 307.158 610.551 488.395 610.551C669.63 610.551 760.247 628.663 850.864 646.776C941.481 664.888 1032.1 683 1213.33 683C1310.14 683 1381.09 677.832 1440 670.256V590V586V97V94V14.051C1393.03 20.4441 1353.56 28.3342 1314.08 36.2244C1223.46 54.3369 1132.84 72.4492 951.605 72.4492C770.37 72.4492 679.753 54.3369 589.136 36.2246C498.519 18.1123 407.902 0 226.668 0Z" fill="#FFC226"/>
</svg>
